<svg width="380" height="319" viewBox="0 0 380 319" fill="none" xmlns="http://www.w3.org/2000/svg">
<path fill-rule="evenodd" clip-rule="evenodd" d="M189.106 1.0722C242.598 3.3941 252.903 60.4151 286.645 91.9372C314.008 117.5 357.35 133.478 365.444 165.81C374.93 203.706 365.954 245.311 332.282 274.248C296.982 304.584 242.199 321.61 189.106 317.353C139.752 313.396 107.332 280.875 73.3416 253.487C40.9481 227.385 -0.304922 201.618 1.03166 165.81C2.3512 130.459 49.1661 109.706 79.7071 82.9547C114.567 52.4201 135.896 -1.23749 189.106 1.0722Z" stroke="url(#paint0_linear_754_710)" stroke-dasharray="5 5"/>
<path fill-rule="evenodd" clip-rule="evenodd" d="M193.494 9.07038C245.533 11.3337 255.558 66.9156 288.383 97.6423C315.002 122.56 357.166 138.134 365.04 169.651C374.269 206.59 365.537 247.145 332.78 275.352C298.439 304.923 245.145 321.519 193.494 317.37C145.482 313.512 113.943 281.812 80.8758 255.115C49.3626 229.672 9.23054 204.555 10.5308 169.651C11.8145 135.192 57.3572 114.963 87.0683 88.8865C120.981 59.1225 141.73 6.81897 193.494 9.07038Z" fill="#AC9576" fill-opacity="0.23"/>
<mask id="mask0_754_710" style="mask-type:alpha" maskUnits="userSpaceOnUse" x="-12" y="-44" width="405" height="362">
<path fill-rule="evenodd" clip-rule="evenodd" d="M195.008 -43.9176C253.732 -41.266 265.046 23.8494 302.088 59.8463C332.128 89.0384 379.71 107.284 388.596 144.206C399.01 187.481 389.156 234.992 352.19 268.037C313.437 302.68 253.295 322.123 195.008 317.261C140.826 312.743 105.234 275.605 67.9185 244.329C32.3561 214.522 -12.9326 185.096 -11.4652 144.206C-10.0166 103.837 41.378 80.1376 74.9067 49.5887C113.177 14.7195 136.592 -46.5551 195.008 -43.9176Z" fill="#C4C4C4"/>
</mask>
<g mask="url(#mask0_754_710)">
<path fill-rule="evenodd" clip-rule="evenodd" d="M110.33 316.161L102.166 272.502L159.55 246.59V316.171V319H156.828H114.461H111.74L110.33 316.161ZM100.747 262.918L91.2711 213.807L159.54 183.754V236.997L100.747 262.918ZM89.8615 205.643L81.6974 156.531L159.55 123.649V174.278L89.8615 205.643ZM80.278 148.259L69.3926 93.7145V90.9932L70.6946 89.6912L154.107 41.8913L159.55 39.0622V44.6126V114.183L80.278 148.259ZM294.893 116.905L379.608 136.072L376.887 157.852L286.622 202.931L294.893 116.905ZM375.467 168.728L370.024 205.643L282.589 246.581L285.31 212.505L375.467 168.728ZM367.303 215.118L361.86 253.335L277.146 291.669L281.179 257.476L367.303 215.118ZM360.441 262.918L352.277 319H296.195H274.415L275.726 301.145L360.441 262.918ZM167.714 9V126.478L289.451 114.174L293.484 62.3504L167.714 9ZM167.714 134.652V166.114L285.31 155.121L288.031 122.348L167.714 134.652ZM167.714 174.288V205.652L281.169 197.488L283.891 163.295L167.714 174.288ZM167.714 213.807V318.99H268.864L279.867 205.643L167.714 213.807Z" fill="#AC9576"/>
</g>
<defs>
<linearGradient id="paint0_linear_754_710" x1="185" y1="1" x2="185" y2="318" gradientUnits="userSpaceOnUse">
<stop stop-color="#AC9576"/>
<stop offset="1" stop-color="#AC9576" stop-opacity="0"/>
</linearGradient>
</defs>
</svg>
