<svg width="18" height="14" viewBox="0 0 18 14" fill="none" xmlns="http://www.w3.org/2000/svg">
<path d="M6.1875 0.75C4.98633 0.75 4 1.73633 4 2.9375C4 4.13867 4.98633 5.125 6.1875 5.125C7.38867 5.125 8.375 4.13867 8.375 2.9375C8.375 1.73633 7.38867 0.75 6.1875 0.75ZM11.8125 0.75C10.6113 0.75 9.625 1.73633 9.625 2.9375C9.625 4.13867 10.6113 5.125 11.8125 5.125C13.0137 5.125 14 4.13867 14 2.9375C14 1.73633 13.0137 0.75 11.8125 0.75ZM6.1875 2C6.7124 2 7.125 2.4126 7.125 2.9375C7.125 3.4624 6.7124 3.875 6.1875 3.875C5.6626 3.875 5.25 3.4624 5.25 2.9375C5.25 2.4126 5.6626 2 6.1875 2ZM11.8125 2C12.3374 2 12.75 2.4126 12.75 2.9375C12.75 3.4624 12.3374 3.875 11.8125 3.875C11.2876 3.875 10.875 3.4624 10.875 2.9375C10.875 2.4126 11.2876 2 11.8125 2ZM3.375 4.5C2.00049 4.5 0.875 5.62549 0.875 7C0.875 7.6958 1.17285 8.32324 1.63672 8.77734C0.804199 9.34131 0.25 10.3008 0.25 11.375H1.5C1.5 10.3325 2.33252 9.5 3.375 9.5C4.41748 9.5 5.25 10.3325 5.25 11.375H6.5C6.5 10.3008 5.9458 9.34131 5.11328 8.77734C5.57715 8.32324 5.875 7.6958 5.875 7C5.875 5.62549 4.74951 4.5 3.375 4.5ZM6.5 11.375C6.10938 11.8975 5.875 12.5542 5.875 13.25H7.125C7.125 12.2075 7.95752 11.375 9 11.375C10.0425 11.375 10.875 12.2075 10.875 13.25H12.125C12.125 12.5542 11.8906 11.8975 11.5 11.375C11.2876 11.0918 11.0312 10.8501 10.7383 10.6523C11.2021 10.1982 11.5 9.5708 11.5 8.875C11.5 7.50049 10.3745 6.375 9 6.375C7.62549 6.375 6.5 7.50049 6.5 8.875C6.5 9.5708 6.79785 10.1982 7.26172 10.6523C6.96875 10.8501 6.7124 11.0918 6.5 11.375ZM11.5 11.375H12.75C12.75 10.3325 13.5825 9.5 14.625 9.5C15.6675 9.5 16.5 10.3325 16.5 11.375H17.75C17.75 10.3008 17.1958 9.34131 16.3633 8.77734C16.8271 8.32324 17.125 7.6958 17.125 7C17.125 5.62549 15.9995 4.5 14.625 4.5C13.2505 4.5 12.125 5.62549 12.125 7C12.125 7.6958 12.4229 8.32324 12.8867 8.77734C12.0542 9.34131 11.5 10.3008 11.5 11.375ZM3.375 5.75C4.07324 5.75 4.625 6.30176 4.625 7C4.625 7.69824 4.07324 8.25 3.375 8.25C2.67676 8.25 2.125 7.69824 2.125 7C2.125 6.30176 2.67676 5.75 3.375 5.75ZM14.625 5.75C15.3232 5.75 15.875 6.30176 15.875 7C15.875 7.69824 15.3232 8.25 14.625 8.25C13.9268 8.25 13.375 7.69824 13.375 7C13.375 6.30176 13.9268 5.75 14.625 5.75ZM9 7.625C9.69824 7.625 10.25 8.17676 10.25 8.875C10.25 9.57324 9.69824 10.125 9 10.125C8.30176 10.125 7.75 9.57324 7.75 8.875C7.75 8.17676 8.30176 7.625 9 7.625Z" fill="#FCFCFC"/>
</svg>
