<svg width="18" height="14" viewBox="0 0 18 14" fill="none" xmlns="http://www.w3.org/2000/svg">
<path d="M2.75 0.75C1.72217 0.75 0.875 1.59717 0.875 2.625V6.86328C0.494141 7.20752 0.25 7.70068 0.25 8.25V13.875H3.375V12.625H14.625V13.875H17.75V8.25C17.75 7.70068 17.5059 7.20752 17.125 6.86328V2.625C17.125 1.59717 16.2778 0.75 15.25 0.75H2.75ZM2.75 2H15.25C15.5967 2 15.875 2.27832 15.875 2.625V6.375H14.625V5.75C14.625 4.72217 13.7778 3.875 12.75 3.875H10.25C9.77148 3.875 9.33203 4.06299 9 4.36328C8.66797 4.06299 8.22852 3.875 7.75 3.875H5.25C4.22217 3.875 3.375 4.72217 3.375 5.75V6.375H2.125V2.625C2.125 2.27832 2.40332 2 2.75 2ZM5.25 5.125H7.75C8.09668 5.125 8.375 5.40332 8.375 5.75V6.375H4.625V5.75C4.625 5.40332 4.90332 5.125 5.25 5.125ZM10.25 5.125H12.75C13.0967 5.125 13.375 5.40332 13.375 5.75V6.375H9.625V5.75C9.625 5.40332 9.90332 5.125 10.25 5.125ZM2.125 7.625H15.875C16.2217 7.625 16.5 7.90332 16.5 8.25V12.625H15.875V11.375H2.125V12.625H1.5V8.25C1.5 7.90332 1.77832 7.625 2.125 7.625Z" fill="#FCFCFC"/>
</svg>
