<svg width="20" height="16" viewBox="0 0 20 16" fill="none" xmlns="http://www.w3.org/2000/svg">
<path d="M16.25 0.5C14.8682 0.5 13.75 1.61816 13.75 3H12.5V4.25H16.25V3H15C15 2.25537 15.5054 1.75 16.25 1.75C16.9946 1.75 17.5 2.25537 17.5 3V6.75H0.625V8H1.36719L2.32422 12.7461V12.7656C2.46826 13.4102 2.94678 13.9399 3.57422 14.1523L3.125 15.5H4.375L4.78516 14.25H15.2148L15.625 15.5H16.875L16.4258 14.1523C17.0801 13.9521 17.5879 13.4272 17.7344 12.7656V12.7461L18.6328 8H19.375V6.75H18.75V3C18.75 1.61816 17.6318 0.5 16.25 0.5ZM2.63672 8H17.3828L16.5039 12.5117C16.4307 12.7827 16.2012 13 15.8789 13H4.17969C3.84522 13 3.61816 12.7778 3.55469 12.4922L2.63672 8Z" fill="#FCFCFC"/>
</svg>
